<svg width="445" height="342" viewBox="0 0 445 342" fill="none" xmlns="http://www.w3.org/2000/svg">
<path opacity="0.1" d="M436.392 77.8707C431.844 69.0308 425.881 60.9954 418.738 54.0832L173.846 52.0425L375.474 28.0934C362.281 23.6773 348.477 21.3615 334.566 21.2305C315.155 7.97366 290.207 0.0195312 262.995 0.0195312C238.58 0.0195312 216.003 6.4372 197.596 17.3264C181.954 10.5108 164.123 6.646 145.177 6.646C90.7647 6.646 45.4259 38.5177 35.2539 80.7861L436.392 77.8707Z" fill="#00509E"/>
<path opacity="0.1" d="M445 113.32C444.983 101.738 442.375 90.3067 437.368 79.8643L12.9404 117.543C8.63244 124.113 5.28413 131.265 2.99686 138.782L134.429 155.352L0 167.431C4.04438 215.281 52.5454 253.063 111.793 253.063C141.616 253.063 168.714 243.489 188.794 227.876C208.937 243.785 236.295 253.567 266.441 253.567C311.165 253.567 349.77 232.029 367.747 200.89C403.812 191.206 431.827 166.899 441.416 136.489L275.203 114.687H445C445 114.23 445 113.777 445 113.32Z" fill="#00509E"/>
<path opacity="0.1" d="M196.895 341.996C259.963 341.996 311.091 339.714 311.091 336.898C311.091 334.083 259.963 331.8 196.895 331.8C133.826 331.8 82.6992 334.083 82.6992 336.898C82.6992 339.714 133.826 341.996 196.895 341.996Z" fill="#00509E"/>
<path d="M264.673 327.932V331.012H173.605V328.511C179.159 326.452 183.978 322.792 187.451 317.992C190.924 313.193 192.896 307.47 193.116 301.549C193.337 295.628 191.796 289.775 188.69 284.73C185.583 279.685 181.05 275.676 175.665 273.21H264.055C258.79 275.621 254.338 279.509 251.237 284.401C248.137 289.293 246.522 294.98 246.587 300.772C246.652 306.564 248.396 312.213 251.606 317.033C254.816 321.854 259.355 325.64 264.673 327.932Z" fill="#BFBFBF"/>
<path opacity="0.1" d="M264.055 273.21C259.992 275.076 256.399 277.827 253.537 281.262C250.675 284.697 248.618 288.728 247.515 293.062H192.209C191.105 288.729 189.048 284.697 186.186 281.262C183.324 277.827 179.731 275.076 175.669 273.21H264.055Z" fill="black"/>
<path d="M69.3096 257.515V274.81C69.3096 284.359 76.2957 292.101 84.9161 292.101H352.869C361.49 292.101 368.476 284.359 368.476 274.81V257.515H69.3096Z" fill="#BFBFBF"/>
<path opacity="0.1" d="M264.673 327.932V331.012H173.605V328.511C176.102 327.581 178.463 326.323 180.627 324.768H259.089C260.832 326.019 262.704 327.079 264.673 327.932Z" fill="black"/>
<path d="M291.026 325.729H147.252C145.186 325.729 143.511 327.405 143.511 329.472V331.115C143.511 333.182 145.186 334.858 147.252 334.858H291.026C293.092 334.858 294.767 333.182 294.767 331.115V329.472C294.767 327.405 293.092 325.729 291.026 325.729Z" fill="#BFBFBF"/>
<path d="M368.476 68.0062C368.47 63.8692 366.824 59.9034 363.897 56.9804C360.971 54.0573 357.004 52.416 352.869 52.417H84.9279C80.7905 52.4128 76.8209 54.0528 73.892 56.9762C70.9631 59.8996 69.3148 63.8671 69.3096 68.0062V260.879H368.476V68.0062Z" fill="#474157"/>
<path d="M360.332 74.9714V240.7C360.333 241.71 360.134 242.709 359.748 243.642C359.362 244.575 358.796 245.423 358.083 246.136C357.369 246.85 356.522 247.416 355.59 247.802C354.657 248.189 353.658 248.387 352.649 248.386H85.1685C84.1594 248.387 83.1601 248.189 82.2277 247.802C81.2953 247.416 80.4481 246.85 79.7345 246.136C79.021 245.423 78.4551 244.575 78.0691 243.642C77.6832 242.709 77.4848 241.71 77.4854 240.7V74.9714C77.4854 72.9329 78.2948 70.9779 79.7357 69.5364C81.1766 68.095 83.1308 67.2852 85.1685 67.2852H352.629C353.64 67.2826 354.641 67.4795 355.576 67.8646C356.51 68.2497 357.359 68.8155 358.075 69.5295C358.79 70.2434 359.358 71.0916 359.745 72.0255C360.133 72.9593 360.332 73.9604 360.332 74.9714Z" fill="#F2F2F2"/>
<path d="M218.896 63.4439C220.886 63.4439 222.5 61.83 222.5 59.8391C222.5 57.8483 220.886 56.2344 218.896 56.2344C216.906 56.2344 215.293 57.8483 215.293 59.8391C215.293 61.83 216.906 63.4439 218.896 63.4439Z" fill="#F2F2F2"/>
<path d="M218.897 284.418C223.804 284.418 227.781 280.439 227.781 275.53C227.781 270.622 223.804 266.643 218.897 266.643C213.99 266.643 210.013 270.622 210.013 275.53C210.013 280.439 213.99 284.418 218.897 284.418Z" fill="#F2F2F2"/>
<path d="M137.253 71.1304V248.386H85.1685C84.1594 248.387 83.1601 248.189 82.2277 247.802C81.2953 247.416 80.4481 246.85 79.7345 246.136C79.021 245.423 78.4551 244.575 78.0691 243.642C77.6832 242.709 77.4848 241.71 77.4854 240.7V74.9715L77.765 73.9275L78.5132 71.1304H137.253Z" fill="#F2F2F2"/>
<path d="M143.936 73.9272V89.8828H77.4854V74.9713L77.765 73.9272H143.936Z" fill="#F2F2F2"/>
<path d="M360.332 74.9714H77.4854C77.4854 73.9622 77.6841 72.9629 78.0703 72.0306C78.4564 71.0983 79.0224 70.2512 79.7359 69.5378C80.4494 68.8244 81.2964 68.2586 82.2286 67.8727C83.1607 67.4869 84.1597 67.2886 85.1685 67.2891H352.629C353.64 67.286 354.641 67.4824 355.575 67.8671C356.51 68.2518 357.359 68.8171 358.075 69.5308C358.79 70.2445 359.358 71.0924 359.745 72.026C360.133 72.9596 360.332 73.9605 360.332 74.9714Z" fill="#BFBFBF"/>
<path d="M85.1679 73.0526C86.2292 73.0526 87.0896 72.1919 87.0896 71.1301C87.0896 70.0683 86.2292 69.2075 85.1679 69.2075C84.1065 69.2075 83.2461 70.0683 83.2461 71.1301C83.2461 72.1919 84.1065 73.0526 85.1679 73.0526Z" fill="#EDEDF4"/>
<path d="M90.9296 73.0526C91.9909 73.0526 92.8513 72.1919 92.8513 71.1301C92.8513 70.0683 91.9909 69.2075 90.9296 69.2075C89.8682 69.2075 89.0078 70.0683 89.0078 71.1301C89.0078 72.1919 89.8682 73.0526 90.9296 73.0526Z" fill="#EDEDF4"/>
<path d="M96.6913 73.0526C97.7527 73.0526 98.6131 72.1919 98.6131 71.1301C98.6131 70.0683 97.7527 69.2075 96.6913 69.2075C95.6299 69.2075 94.7695 70.0683 94.7695 71.1301C94.7695 72.1919 95.6299 73.0526 96.6913 73.0526Z" fill="#EDEDF4"/>
<path d="M127.321 80.9517H87.417V84.6274H127.321V80.9517Z" fill="#00509E"/>
<path opacity="0.5" d="M127.321 98.877H87.417V102.553H127.321V98.877Z" fill="#00509E"/>
<path opacity="0.5" d="M127.321 111.551H87.417V115.226H127.321V111.551Z" fill="#00509E"/>
<path opacity="0.5" d="M127.321 124.225H87.417V127.9H127.321V124.225Z" fill="#00509E"/>
<path opacity="0.5" d="M127.321 136.895H87.417V140.57H127.321V136.895Z" fill="#00509E"/>
<path opacity="0.5" d="M127.321 149.568H87.417V153.244H127.321V149.568Z" fill="#00509E"/>
<path opacity="0.5" d="M346.745 94.4688H169.923V95.0597H346.745V94.4688Z" fill="#9F9F9F"/>
<path opacity="0.5" d="M346.745 108.19H169.923V108.781H346.745V108.19Z" fill="#9F9F9F"/>
<path opacity="0.5" d="M346.745 121.916H169.923V122.507H346.745V121.916Z" fill="#9F9F9F"/>
<path opacity="0.5" d="M346.745 135.638H169.923V136.229H346.745V135.638Z" fill="#9F9F9F"/>
<path opacity="0.5" d="M346.745 149.359H169.923V149.95H346.745V149.359Z" fill="#9F9F9F"/>
<path opacity="0.5" d="M346.749 149.947H169.706V122.96L185.943 130.965L202.746 133.243L217.49 128.795L235.279 114.994L244.226 109.825L250.767 108.565L257.024 108.9L267.319 113.986L281.307 122.901L292.286 124.315L300.993 121.313L319.443 106.193L328.862 102.833L338.719 104.357L346.749 108.994V149.947Z" fill="#00509E"/>
<path d="M200.565 133.25C184.623 133.25 169.887 123.496 169.706 123.37L170.143 122.716C170.372 122.869 193.047 137.879 212.316 130.359C219.349 127.621 224.343 123.354 229.194 119.233C234.247 114.927 239.02 110.857 245.521 109.092C253.004 107.071 261.136 108.903 267.33 113.993C272.623 118.347 283.169 125.34 294.31 123.248C299.989 122.184 304.777 118.032 309.846 113.639C319.549 105.208 329.615 96.5053 346.978 109.002L346.517 109.64C329.642 97.5099 319.833 106.012 310.35 114.234C305.199 118.701 300.331 122.901 294.444 124.024C282.984 126.171 272.217 119.044 266.818 114.604C260.821 109.672 252.933 107.907 245.718 109.857C239.382 111.574 234.692 115.585 229.694 119.832C224.807 123.996 219.751 128.306 212.603 131.095C208.759 132.557 204.677 133.288 200.565 133.25Z" fill="#00509E"/>
<path d="M255.009 112.871C257.43 112.871 259.392 110.908 259.392 108.486C259.392 106.064 257.43 104.101 255.009 104.101C252.588 104.101 250.626 106.064 250.626 108.486C250.626 110.908 252.588 112.871 255.009 112.871Z" fill="#00509E"/>
<path d="M145.164 203.774C139.174 200.323 136.894 199.468 136.894 199.464L136.772 199.377C136.118 198.875 135.598 198.219 135.26 197.466C135.26 197.329 135.26 197.191 135.26 197.073V197.112C135.358 195.284 136.654 193.625 137.887 192.176C138.937 190.938 139.987 189.703 141.037 188.468C141.399 188.093 141.676 187.644 141.848 187.152C141.913 186.895 141.942 186.63 141.935 186.365C141.935 186.254 141.935 186.148 141.935 186.042C141.935 185.12 141.892 184.198 141.86 183.284C141.829 182.476 141.624 181.464 140.817 181.314C140.399 181.227 139.848 181.377 139.635 181.018C139.558 180.872 139.538 180.702 139.58 180.542C139.58 180.542 139.58 180.565 139.58 180.577C139.578 180.563 139.578 180.548 139.58 180.534C139.735 179.912 139.835 179.278 139.879 178.639C139.893 178.315 139.849 177.99 139.749 177.682C139.281 176.346 137.678 175.798 136.26 175.546C134.843 175.294 133.252 175.078 132.362 173.97C132.118 173.601 131.855 173.245 131.574 172.903C131.162 172.539 130.66 172.292 130.121 172.186C128.362 171.75 126.508 171.912 124.852 172.647C124.166 172.954 123.477 173.364 122.725 173.32C121.973 173.277 121.276 172.729 120.504 172.599C119.26 172.387 118.066 173.305 117.452 174.388C117.088 175.031 116.894 175.757 116.889 176.496C116.889 176.535 116.889 176.579 116.889 176.618C116.873 177.413 117.164 178.183 117.7 178.769C118.236 179.328 119.035 179.711 119.275 180.443C119.366 180.743 119.346 181.066 119.425 181.365C119.425 181.405 119.449 181.44 119.461 181.479L119.417 181.531C118.138 183.178 117.445 185.205 117.448 187.29C117.461 189.315 118.116 191.284 119.319 192.913C120.522 194.541 122.211 195.746 124.143 196.352C124.143 196.442 124.143 196.537 124.143 196.635C124.17 197.227 124.067 197.817 123.843 198.364C123.618 198.912 123.277 199.404 122.843 199.807L114.345 203.218C114.345 203.218 109.225 202.612 107.382 210.093C107.087 211.335 106.981 212.614 107.067 213.887C107.134 215.018 106.977 217.003 105.666 219.572C103.567 223.685 104.043 233.12 108.336 234.054C112.388 234.936 113.975 234.57 114.14 234.527V234.692C114.073 236.465 113.431 251.735 111.096 253.602C110.446 254.111 110.568 254.457 111.096 254.69C111.096 254.69 111.096 254.788 111.096 254.965C111.025 256.084 110.663 260.335 109.099 262.758C107.304 265.551 107.509 281.704 107.509 281.704L106.272 291.234C106.272 291.234 107.032 297.12 106.272 298.148C105.591 299.066 104.697 320.844 104.492 325.564H104.413C104.039 325.586 103.677 325.7 103.357 325.895C103.037 326.09 102.77 326.361 102.578 326.683C101.562 328.314 98.0572 331.32 98.0572 331.32C97.2971 332.403 94.4775 333.439 92.9889 333.928C92.7897 333.992 92.5972 334.075 92.414 334.176C91.8566 334.48 91.4088 334.951 91.1341 335.523C91.0373 335.692 90.9755 335.878 90.9525 336.071C90.9295 336.264 90.9457 336.46 91.0002 336.646C91.394 337.58 99.2977 338.222 101.298 337.3C102.873 336.567 109.111 335.598 111.703 335.22C112.173 335.161 112.61 334.946 112.945 334.611C113.28 334.276 113.494 333.839 113.553 333.368C113.578 333.206 113.57 333.04 113.53 332.881C113.489 332.722 113.417 332.573 113.317 332.442C112.821 331.828 112.565 330.15 112.451 329.054C112.661 328.968 112.857 328.851 113.034 328.708C112.821 325.312 113.308 321.909 114.463 318.709C116.369 313.666 116.944 304.321 116.468 298.246C116.468 298.246 122.284 273.202 126.864 270.866C126.935 270.953 129.156 273.805 129.44 282.638C129.723 291.608 132.964 297.494 132.964 297.494C132.964 297.494 131.535 312.725 132.964 318.425L131.086 327.404C131.007 327.339 130.932 327.271 130.861 327.199C130.861 327.199 130.916 327.451 130.995 327.849L130.956 328.038L131.034 328.058C131.247 329.18 131.562 331.138 131.428 332.289C131.353 332.947 131.172 333.841 131.034 334.723C130.838 336.106 130.782 337.45 131.511 337.741C132.692 338.222 139.714 338.88 140.907 337.347C141.175 337.033 141.349 336.65 141.41 336.242C141.471 335.834 141.417 335.417 141.254 335.039C141.167 334.827 141.05 334.63 140.907 334.452C140.907 334.452 139.044 331.406 139.572 329.259C139.62 329.05 139.625 328.833 139.587 328.621C139.548 328.41 139.467 328.209 139.348 328.03C139.621 324.631 140.167 321.26 140.982 317.948C142.163 313.453 144.692 303.596 142.841 297.112C142.77 296.86 142.691 296.607 142.604 296.363C141.535 292.824 141.178 289.109 141.553 285.431C140.864 282.291 140.864 279.04 141.553 275.901C142.687 270.673 143.487 265.551 143.487 265.551C143.487 265.551 144.117 258.637 143.565 254.398L143.53 254.126L143.829 254.059C143.829 254.059 142.211 246.866 141.636 242.288C141.502 241.204 141.325 239.837 141.132 238.376C141.66 238.285 142.18 238.153 142.687 237.982C147.838 236.205 149.457 220.131 149.457 220.131V215.033C149.457 215.033 151.174 207.245 145.164 203.774ZM106.796 327.872L106.544 327.738L106.796 327.872Z" fill="url(#paint0_linear)"/>
<path d="M142.058 296.517C144.29 302.942 141.664 313.371 140.482 318.027C139.687 321.394 139.16 324.82 138.907 328.27C136.19 328.729 133.409 328.665 130.716 328.081L132.685 318.492C131.291 312.811 132.685 297.632 132.685 297.632C132.685 297.632 129.535 291.762 129.243 282.823C128.967 274.025 126.801 271.181 126.731 271.09C122.229 273.431 116.567 298.38 116.567 298.38C117.031 304.432 116.472 313.745 114.597 318.776C113.468 321.969 112.992 325.358 113.199 328.739C112.55 329.287 111.644 329.381 110.667 329.224C108.009 328.794 104.823 326.501 104.823 326.501C104.823 326.501 105.847 299.318 106.591 298.286C107.336 297.254 106.591 291.395 106.591 291.395L107.8 281.897C107.8 281.897 107.615 265.788 109.376 262.987C110.904 260.572 111.254 256.333 111.325 255.222C111.325 255.044 111.325 254.946 111.325 254.946L114.019 251.719C114.019 251.719 140.085 249.749 142.038 251.719C142.518 252.2 142.825 253.295 142.991 254.666C143.526 258.889 142.912 265.78 142.912 265.78C142.912 265.78 142.124 270.901 141.014 276.113C140.342 279.244 140.342 282.481 141.014 285.612C140.65 289.28 141.005 292.984 142.058 296.517Z" fill="#65617D"/>
<path d="M140.427 337.351C139.265 338.888 132.425 338.238 131.259 337.745C130.546 337.45 130.601 336.114 130.794 334.735C130.917 333.857 131.094 332.963 131.165 332.313C131.354 330.634 130.609 327.234 130.609 327.234C130.609 327.234 132.145 328.865 132.515 327.234C132.601 326.923 132.77 326.642 133.004 326.419C133.238 326.197 133.528 326.043 133.843 325.974C134.64 325.732 135.498 325.786 136.26 326.123C137.469 326.647 139.486 327.766 139.123 329.275C138.611 331.414 140.427 334.448 140.427 334.448C140.568 334.626 140.682 334.824 140.766 335.035C140.929 335.415 140.984 335.832 140.924 336.241C140.864 336.65 140.692 337.034 140.427 337.351Z" fill="#A27772"/>
<path opacity="0.1" d="M140.427 337.351C139.265 338.888 132.425 338.238 131.259 337.745C130.547 337.45 130.602 336.114 130.795 334.735C131.527 335.078 132.764 335.366 134.859 335.173C135.346 335.125 135.835 335.11 136.324 335.125C137.805 335.195 139.289 335.166 140.766 335.039C140.928 335.418 140.983 335.835 140.923 336.243C140.863 336.651 140.692 337.035 140.427 337.351Z" fill="black"/>
<path opacity="0.1" d="M116.566 298.38C117.031 304.432 116.472 313.745 114.597 318.776C113.467 321.969 112.992 325.358 113.199 328.739C112.549 329.287 111.644 329.381 110.667 329.224C111.23 325.284 113.621 308.371 115.156 295.004C116.901 279.777 125.068 269.302 125.068 269.302L126.699 271.094C122.229 273.43 116.566 298.38 116.566 298.38Z" fill="black"/>
<path d="M137.635 200.508L136.497 206.094L130.933 215.455L124.068 212.52C124.068 212.52 114.735 202.742 120.599 201.347C121.302 201.197 121.966 200.902 122.548 200.48C123.698 199.61 124.061 198.349 124.068 197.112C124.022 195.726 123.698 194.363 123.115 193.105L135.123 189.335C134.626 190.913 134.336 192.548 134.26 194.2C134.17 197.47 135.383 199.086 136.379 199.854C136.75 200.154 137.177 200.376 137.635 200.508Z" fill="#F0D1C4"/>
<path opacity="0.1" d="M135.122 189.335C134.626 190.913 134.336 192.548 134.26 194.2C133.043 195.645 131.424 196.693 129.608 197.212C127.793 197.731 125.864 197.696 124.068 197.112C124.022 195.726 123.698 194.363 123.115 193.105L135.122 189.335Z" fill="black"/>
<path d="M136.497 187.799C136.497 189.677 135.94 191.514 134.897 193.076C133.854 194.638 132.371 195.855 130.636 196.574C128.901 197.293 126.992 197.481 125.15 197.115C123.308 196.748 121.617 195.844 120.289 194.515C118.961 193.187 118.057 191.494 117.69 189.652C117.324 187.809 117.512 185.9 118.231 184.164C118.949 182.428 120.166 180.945 121.728 179.901C123.289 178.857 125.125 178.3 127.002 178.3C128.25 178.297 129.486 178.541 130.64 179.017C131.793 179.493 132.841 180.193 133.723 181.075C134.605 181.958 135.305 183.006 135.781 184.16C136.257 185.314 136.5 186.551 136.497 187.799Z" fill="#F0D1C4"/>
<path opacity="0.1" d="M137.635 200.508L136.497 206.094L130.933 215.455L124.068 212.52C124.068 212.52 114.735 202.742 120.599 201.347C121.302 201.197 121.966 200.902 122.548 200.48C121.489 203.392 125.86 209.447 125.86 209.447C126.368 210.196 127.538 209.727 127.538 209.727C130.35 209.301 135.536 201.201 136.379 199.854C136.75 200.154 137.177 200.376 137.635 200.508Z" fill="black"/>
<path opacity="0.1" d="M143.011 254.674C141.357 255.068 132.213 257.073 128.747 256.569C124.931 256.009 117.508 255.639 117.508 255.639C117.508 255.639 112.782 255.891 111.333 255.245C111.333 255.068 111.333 254.969 111.333 254.969L114.027 251.743C114.027 251.743 140.093 249.773 142.046 251.743C142.558 252.208 142.833 253.299 143.011 254.674Z" fill="black"/>
<path d="M125.86 209.727C125.86 209.727 120.95 202.923 122.801 200.271L114.503 203.675C114.503 203.675 109.51 203.069 107.71 210.522C107.421 211.762 107.317 213.038 107.399 214.308C107.466 215.431 107.312 217.409 106.032 219.97C103.984 224.067 104.457 233.475 108.639 234.404C112.821 235.334 114.318 234.869 114.318 234.869C114.318 234.869 113.759 251.912 111.341 253.866C108.923 255.82 117.512 255.355 117.512 255.355C117.512 255.355 124.931 255.749 128.747 256.289C132.563 256.829 143.267 254.319 143.267 254.319C143.267 254.319 141.691 247.149 141.124 242.587C140.557 238.025 139.266 228.31 139.266 228.31L148.76 215.443C148.76 215.443 150.434 207.666 144.57 204.223C138.706 200.78 136.497 199.929 136.497 199.929C136.497 199.929 130.59 209.53 127.534 209.994C127.534 210.002 126.368 210.475 125.86 209.727Z" fill="#FAA61A"/>
<path opacity="0.1" d="M114.968 212.429C114.968 212.429 114.877 215.502 115.436 216.712C115.996 217.921 118.04 224.626 118.04 224.626H113.389C113.389 224.626 115.901 221.928 115.716 220.624C115.531 219.32 114.968 212.429 114.968 212.429Z" fill="black"/>
<path d="M128.747 235.61C128.747 235.61 118.468 233.097 117.511 230.957C116.555 228.818 113.912 224.02 113.912 224.02L114.995 222.558L119.996 226.498C119.996 226.498 125.955 231.225 128.747 231.714C131.539 232.202 128.747 235.61 128.747 235.61Z" fill="#F0D1C4"/>
<path opacity="0.05" d="M128.747 235.61C128.747 235.61 118.468 233.097 117.511 230.957C116.555 228.818 113.912 224.02 113.912 224.02L114.995 222.558L119.996 226.498C119.996 226.498 125.955 231.225 128.747 231.714C131.539 232.202 128.747 235.61 128.747 235.61Z" fill="black"/>
<path d="M137.635 223.511V229.09H136.737C132.309 229.09 127.953 230.218 124.081 232.368L122.403 233.297L121.95 233.549L119.063 227.049L121.765 224.626H121.903C122.564 224.689 125.419 224.926 126.628 224.52C127.837 224.114 129.208 222.889 132.591 223.755C134.26 224.181 135.682 226.052 137.316 225.469L137.635 223.511Z" fill="#F0D1C4"/>
<path opacity="0.1" d="M146.617 213.359L148.48 215.455V220.529C148.48 220.529 146.905 236.547 141.872 238.316C136.839 240.085 127.872 237.292 127.872 237.292C127.872 237.292 125.553 231.146 126.636 230.772C127.719 230.398 136.221 228.156 136.221 228.156C136.221 228.156 136.099 218.76 137.962 215.967C137.962 215.967 136.753 207.213 140.939 207.028C145.125 206.843 146.617 213.359 146.617 213.359Z" fill="black"/>
<path d="M146.89 213.359L148.753 215.455V220.529C148.753 220.529 147.177 236.547 142.141 238.316C137.104 240.085 128.145 237.292 128.145 237.292C128.145 237.292 125.825 231.146 126.908 230.772C127.991 230.398 136.489 228.156 136.489 228.156C136.489 228.156 136.371 218.76 138.234 215.967C138.234 215.967 137.021 207.213 141.211 207.028C145.401 206.843 146.89 213.359 146.89 213.359Z" fill="#FAA61A"/>
<path opacity="0.1" d="M133.893 191.833C133.976 191.221 133.903 190.597 133.681 190.021C133.564 189.736 133.356 189.498 133.09 189.344C132.823 189.19 132.513 189.128 132.208 189.17C131.42 189.355 131.066 190.391 130.286 190.639C129.628 190.848 128.908 190.383 128.593 189.769C128.329 189.128 128.218 188.435 128.27 187.744C128.27 186.956 128.27 186.187 128.27 185.407C128.27 184.56 128.242 183.646 127.718 182.981C127.069 182.153 125.545 181.799 124.529 181.826C123.851 181.833 123.2 182.095 122.705 182.559C122.457 182.809 122.156 183 121.824 183.119C121.492 183.238 121.138 183.281 120.787 183.244C120.478 183.197 120.189 183.063 119.953 182.858C119.717 182.653 119.543 182.386 119.452 182.086C119.451 182.076 119.451 182.065 119.452 182.055C120.244 181.008 121.243 180.137 122.388 179.496C123.532 178.855 124.797 178.459 126.102 178.331C127.408 178.204 128.725 178.348 129.972 178.755C131.219 179.163 132.368 179.824 133.347 180.698C134.325 181.571 135.112 182.638 135.658 183.831C136.204 185.024 136.497 186.318 136.518 187.63C136.54 188.942 136.289 190.244 135.783 191.454C135.276 192.664 134.524 193.756 133.574 194.662C133.732 193.725 133.838 192.781 133.893 191.833Z" fill="black"/>
<path d="M120.784 182.965C120.475 182.917 120.185 182.783 119.949 182.578C119.712 182.373 119.537 182.106 119.445 181.806C119.37 181.507 119.39 181.184 119.3 180.889C119.083 180.156 118.303 179.774 117.779 179.218C116.732 178.107 116.799 176.275 117.539 174.936C118.142 173.856 119.303 172.946 120.52 173.155C121.273 173.289 121.922 173.825 122.686 173.872C123.45 173.919 124.092 173.51 124.762 173.202C126.375 172.471 128.188 172.31 129.905 172.745C130.433 172.85 130.923 173.097 131.322 173.458C131.593 173.799 131.846 174.154 132.079 174.522C132.945 175.629 134.5 175.846 135.883 176.098C137.265 176.35 138.832 176.886 139.285 178.229C139.588 179.112 139.285 180.069 139.124 180.987C139.064 181.175 139.076 181.379 139.159 181.558C139.376 181.917 139.915 181.767 140.341 181.85C141.128 182.015 141.325 183.032 141.353 183.82C141.389 184.734 141.414 185.653 141.427 186.577C141.451 186.92 141.424 187.263 141.349 187.598C141.179 188.075 140.91 188.511 140.561 188.878L137.485 192.574C136.123 194.212 134.678 196.119 134.949 198.235C134.304 198.522 133.54 197.967 133.327 197.289C133.114 196.612 133.284 195.887 133.429 195.193C133.677 193.994 133.839 192.779 133.914 191.557C133.997 190.943 133.924 190.319 133.701 189.741C133.584 189.456 133.375 189.217 133.108 189.063C132.841 188.909 132.53 188.848 132.224 188.89C131.437 189.075 131.086 190.111 130.306 190.359C129.649 190.572 128.928 190.103 128.613 189.489C128.351 188.848 128.241 188.155 128.29 187.464V185.128C128.29 184.281 128.263 183.367 127.739 182.701C127.093 181.873 125.565 181.519 124.549 181.546C123.871 181.553 123.22 181.815 122.726 182.279C122.475 182.533 122.17 182.726 121.833 182.845C121.497 182.963 121.139 183.004 120.784 182.965Z" fill="#7C5C5C"/>
<path opacity="0.1" d="M122.927 212.197L125.845 224.173C125.845 224.173 128.141 224.161 122.927 212.197Z" fill="black"/>
<path opacity="0.1" d="M132.889 210.191C132.889 210.191 129.069 216.448 130.562 222.913L131.271 222.964C131.271 222.964 130.003 219.97 132.889 210.191Z" fill="black"/>
<path opacity="0.1" d="M135.308 245.581C135.308 245.581 139.994 244.029 140.337 247.63C140.337 247.63 139.45 245.16 135.308 245.581Z" fill="black"/>
<path opacity="0.1" d="M121.765 224.906C121.765 224.906 120.835 231.426 122.509 234.034C119.883 234.96 117.096 235.339 114.318 235.149L113.759 224.906H121.765Z" fill="black"/>
<path opacity="0.1" d="M122.403 233.298L121.95 233.55L119.063 227.049L121.765 224.626H121.903C121.859 224.942 121.107 230.54 122.403 233.298Z" fill="black"/>
<path d="M121.764 224.626C121.764 224.626 120.835 231.147 122.508 233.755C119.882 234.68 117.095 235.06 114.317 234.87L111.061 224.626H121.764Z" fill="#FAA61A"/>
<path d="M113.711 333.388C113.658 333.853 113.451 334.286 113.124 334.62C112.796 334.954 112.367 335.169 111.904 335.232C109.379 335.626 103.287 336.571 101.751 337.304C99.7825 338.238 92.0718 337.584 91.6977 336.654C91.6452 336.467 91.63 336.272 91.653 336.079C91.6759 335.887 91.7366 335.701 91.8316 335.531C92.0117 335.161 92.2645 334.83 92.5751 334.559C92.8856 334.289 93.2475 334.083 93.6391 333.955C95.0962 333.467 97.8449 332.439 98.5853 331.359C98.5853 331.359 102.011 328.357 102.988 326.738C103.171 326.419 103.431 326.15 103.744 325.955C104.056 325.76 104.412 325.646 104.78 325.623C105.595 325.584 106.501 325.997 106.875 327.782C106.875 327.782 111.341 330.331 112.55 328.097C112.55 328.097 112.735 331.529 113.475 332.47C113.573 332.6 113.644 332.748 113.685 332.906C113.725 333.063 113.734 333.227 113.711 333.388Z" fill="#A27772"/>
<path opacity="0.1" d="M113.711 333.388C113.658 333.852 113.451 334.286 113.124 334.62C112.796 334.954 112.367 335.169 111.904 335.232C109.379 335.626 103.287 336.571 101.751 337.304C99.7825 338.238 92.0718 337.584 91.6977 336.654C91.6452 336.467 91.63 336.272 91.653 336.079C91.6759 335.886 91.7366 335.7 91.8316 335.531C92.0969 334.965 92.5337 334.496 93.0799 334.191C94.3401 335.027 97.1361 335.846 103.287 334.885C109.155 333.967 112.057 333.069 113.475 332.458C113.575 332.589 113.647 332.739 113.687 332.899C113.728 333.059 113.736 333.225 113.711 333.388Z" fill="black"/>
<g opacity="0.1">
<path opacity="0.1" d="M139.111 181.113C139.113 181.097 139.113 181.081 139.111 181.066C139.296 180.377 139.392 179.667 139.399 178.954C139.34 179.524 139.244 180.09 139.111 180.648C139.076 180.801 139.076 180.96 139.111 181.113Z" fill="black"/>
<path opacity="0.1" d="M133.681 189.828C133.827 190.164 133.904 190.525 133.909 190.891C133.952 190.387 133.873 189.879 133.681 189.41C133.564 189.125 133.355 188.886 133.088 188.731C132.821 188.577 132.51 188.515 132.204 188.555C131.416 188.74 131.066 189.78 130.286 190.029C129.629 190.237 128.908 189.769 128.593 189.154C128.327 188.514 128.217 187.82 128.27 187.129C128.27 186.341 128.27 185.573 128.27 184.797C128.27 183.95 128.242 183.036 127.719 182.37C127.069 181.539 125.545 181.188 124.525 181.212C123.847 181.219 123.198 181.482 122.706 181.948C122.457 182.198 122.156 182.388 121.824 182.506C121.492 182.624 121.138 182.667 120.788 182.63C120.478 182.584 120.187 182.451 119.95 182.246C119.713 182.041 119.539 181.772 119.449 181.472C119.37 181.172 119.394 180.853 119.303 180.554C119.086 179.821 118.307 179.443 117.783 178.887C117.294 178.345 117.015 177.647 116.995 176.917C116.958 177.348 117.009 177.782 117.144 178.192C117.279 178.603 117.497 178.981 117.783 179.305C118.307 179.86 119.086 180.243 119.303 180.975C119.394 181.271 119.37 181.594 119.449 181.893C119.541 182.193 119.715 182.46 119.952 182.665C120.189 182.87 120.478 183.004 120.788 183.052C121.138 183.088 121.492 183.045 121.824 182.926C122.156 182.807 122.457 182.616 122.706 182.366C123.2 181.907 123.847 181.647 124.521 181.637C125.541 181.606 127.065 181.968 127.715 182.795C128.238 183.461 128.262 184.371 128.266 185.222C128.266 186.01 128.266 186.778 128.266 187.555C128.212 188.247 128.323 188.942 128.589 189.583C128.904 190.198 129.625 190.663 130.282 190.454C131.07 190.206 131.405 189.17 132.2 188.981C132.506 188.94 132.816 189.001 133.084 189.154C133.351 189.307 133.561 189.544 133.681 189.828Z" fill="black"/>
<path opacity="0.1" d="M141.332 187.263C141.162 187.741 140.893 188.178 140.545 188.547C139.516 189.776 138.49 191.007 137.469 192.239C136.177 193.795 134.807 195.595 134.905 197.581C135 195.761 136.268 194.106 137.469 192.66L140.545 188.965C140.893 188.597 141.161 188.161 141.332 187.684C141.408 187.349 141.435 187.004 141.411 186.66C141.409 186.863 141.382 187.066 141.332 187.263Z" fill="black"/>
<path opacity="0.1" d="M133.306 196.958C133.256 196.796 133.224 196.628 133.212 196.458C133.186 196.767 133.218 197.079 133.306 197.376C133.515 198.054 134.283 198.609 134.929 198.321C134.929 198.184 134.901 198.046 134.897 197.927C134.259 198.184 133.499 197.62 133.306 196.958Z" fill="black"/>
</g>
<path opacity="0.1" d="M102.39 327.569C102.39 327.569 103.362 329.279 106.891 327.77L102.39 327.569Z" fill="black"/>
<path opacity="0.1" d="M132.181 327.979C132.181 327.979 135.225 331.56 139.057 329.161L132.181 327.979Z" fill="black"/>
<path opacity="0.1" d="M141.034 285.62C141.034 285.62 138.884 286.963 138.813 287.731C138.742 288.5 139.923 287.172 139.923 287.172L141.034 285.62Z" fill="black"/>
<path opacity="0.1" d="M141.88 295.918C141.134 296.541 140.205 296.904 139.234 296.95C137.627 297.021 137.761 299.117 138.813 298.487C139.864 297.856 141.88 295.918 141.88 295.918Z" fill="black"/>
<path opacity="0.1" d="M142.29 297.261C142.29 297.261 141.258 302.328 140.419 301.351L142.29 297.261Z" fill="black"/>
<g opacity="0.5">
<path opacity="0.5" d="M211.54 180.691H185.549V186.207H211.54V180.691Z" fill="#9F9F9F"/>
<path opacity="0.5" d="M271.222 180.691H245.23V186.207H271.222V180.691Z" fill="#9F9F9F"/>
<path opacity="0.5" d="M330.902 180.691H304.911V186.207H330.902V180.691Z" fill="#9F9F9F"/>
</g>
<path d="M183.71 219.209C183.71 211.157 190.259 204.971 198.313 204.971H198.427V201.308H198.313C188.239 201.308 180.048 209.136 180.048 219.209C180.048 221.815 180.606 224.391 181.685 226.763C182.765 229.135 184.34 231.248 186.305 232.959L188.901 230.362C187.275 228.994 185.968 227.287 185.072 225.361C184.175 223.434 183.71 221.335 183.71 219.209Z" fill="#00509E"/>
<path opacity="0.5" d="M198.793 201.312V204.975C201.138 204.991 203.445 205.572 205.519 206.668C207.592 207.765 209.371 209.345 210.704 211.275C212.038 213.205 212.887 215.428 213.18 217.755C213.473 220.083 213.201 222.447 212.387 224.648C211.573 226.848 210.241 228.82 208.504 230.396C206.767 231.972 204.676 233.107 202.408 233.703C200.14 234.3 197.761 234.341 195.474 233.823C193.187 233.306 191.058 232.244 189.267 230.729L186.664 233.325C188.882 235.265 191.536 236.639 194.401 237.33C197.265 238.021 200.254 238.009 203.112 237.294C205.97 236.578 208.613 235.182 210.814 233.223C213.016 231.264 214.711 228.801 215.754 226.045C216.798 223.289 217.159 220.321 216.807 217.394C216.455 214.468 215.401 211.67 213.734 209.24C212.066 206.81 209.836 204.82 207.233 203.439C204.63 202.058 201.732 201.328 198.785 201.312H198.793Z" fill="#00509E"/>
<path opacity="0.5" d="M318.509 204.786C326.559 204.786 332.742 211.338 332.742 219.395C332.742 219.43 332.742 219.469 332.742 219.509H336.404C336.404 219.469 336.404 219.43 336.404 219.395C336.404 209.321 328.579 201.123 318.509 201.123C315.904 201.122 313.329 201.68 310.958 202.76C308.587 203.84 306.476 205.416 304.766 207.383L307.361 209.979C308.728 208.353 310.435 207.045 312.361 206.148C314.287 205.251 316.385 204.787 318.509 204.786Z" fill="#00509E"/>
<path d="M336.4 219.875H332.738C332.722 222.221 332.141 224.529 331.045 226.603C329.949 228.677 328.37 230.457 326.441 231.791C324.512 233.125 322.29 233.975 319.963 234.268C317.636 234.561 315.273 234.289 313.073 233.474C310.874 232.66 308.903 231.328 307.327 229.59C305.751 227.852 304.617 225.76 304.021 223.491C303.425 221.222 303.384 218.843 303.901 216.555C304.419 214.266 305.48 212.136 306.994 210.345L304.411 207.749C302.472 209.968 301.098 212.623 300.407 215.489C299.717 218.354 299.729 221.344 300.444 224.203C301.159 227.063 302.555 229.706 304.513 231.909C306.471 234.111 308.933 235.807 311.688 236.851C314.443 237.895 317.41 238.256 320.336 237.904C323.261 237.552 326.057 236.497 328.486 234.83C330.916 233.162 332.905 230.93 334.285 228.326C335.665 225.722 336.395 222.823 336.412 219.875H336.4Z" fill="#00509E"/>
<path opacity="0.5" d="M265.425 202.383L264.696 206.031C270.056 208.194 273.482 213.45 273.482 219.576C273.483 222.208 272.772 224.792 271.426 227.054C270.079 229.316 268.146 231.171 265.832 232.424C263.517 233.677 260.907 234.281 258.278 234.172C255.649 234.063 253.098 233.245 250.895 231.804C248.693 230.363 246.92 228.354 245.766 225.988C244.611 223.623 244.117 220.989 244.336 218.365C244.555 215.742 245.478 213.226 247.009 211.085C248.54 208.944 250.621 207.256 253.032 206.201L251.409 202.911C248.416 204.259 245.842 206.389 243.957 209.077C242.072 211.765 240.947 214.912 240.699 218.186C240.451 221.46 241.09 224.741 242.548 227.682C244.007 230.624 246.231 233.117 248.987 234.901C251.743 236.684 254.928 237.692 258.208 237.817C261.488 237.942 264.741 237.18 267.625 235.611C270.508 234.043 272.916 231.726 274.594 228.904C276.272 226.082 277.158 222.859 277.16 219.576C277.16 211.669 272.482 204.924 265.425 202.383Z" fill="#00509E"/>
<path d="M259.356 204.759C261.105 204.758 262.836 205.117 264.44 205.814L265.169 202.17C263.314 201.456 261.344 201.091 259.356 201.095C256.776 201.095 254.226 201.644 251.874 202.706L253.512 205.988C255.353 205.175 257.344 204.757 259.356 204.759Z" fill="#00509E"/>
<defs>
<linearGradient id="paint0_linear" x1="120.307" y1="338.312" x2="120.307" y2="171.934" gradientUnits="userSpaceOnUse">
<stop stop-color="#5C5353" stop-opacity="0.25"/>
<stop offset="0.54" stop-color="#808080" stop-opacity="0.12"/>
<stop offset="1" stop-color="#808080" stop-opacity="0.1"/>
</linearGradient>
</defs>
</svg>
