<svg height="446pt" viewBox="-1 0 446 446.79487" width="446pt" xmlns="http://www.w3.org/2000/svg"><path d="m7.429688 439.769531c9.371093 9.367188 24.5625 9.367188 33.933593 0l135.769531-135.769531-33.945312-33.945312-135.757812 135.769531c-9.375 9.371093-9.375 24.570312 0 33.945312zm0 0"/><path d="m273.445312 93.832031-40.714843-40.800781c-15.632813-15.59375-40.941407-15.59375-56.574219 0l-80.695312 80.800781c-4.523438 4.492188-7.066407 10.601563-7.066407 16.976563s2.542969 12.484375 7.066407 16.976562c9.480468 9.066406 24.421874 9.066406 33.902343 0l69.441407-69.441406c3.125-3.121094 8.1875-3.121094 11.3125 0l29.4375 29.441406c9.367187 9.335938 24.523437 9.335938 33.890624 0 4.515626-4.492187 7.054688-10.597656 7.054688-16.96875s-2.539062-12.476562-7.054688-16.96875zm0 0"/><path d="m438.203125 199.855469c-4.550781-4.996094-11-7.847657-17.757813-7.855469h-72c-4.417968 0-8-3.582031-8-8v-20.6875l-40 40v28.6875c0 4.417969 3.582032 8 8 8h110.640626c12.683593.273438 23.550781-9.023438 25.246093-21.601562.695313-6.769532-1.535156-13.519532-6.128906-18.542969zm0 0"/><path d="m225.347656 423.785156 72-72c15.574219-15.632812 15.574219-40.914062 0-56.546875l-66.726562-66.726562c-4.496094-4.503907-10.597656-7.03125-16.960938-7.023438-.800781 0-1.601562.046875-2.464844.128907-7.273437.710937-13.824218 4.714843-17.773437 10.863281-6.089844 9.828125-4.472656 22.574219 3.878906 30.566406l54.792969 54.792969c3.121094 3.125 3.121094 8.1875 0 11.3125l-60.640625 60.640625c-4.523437 4.492187-7.066406 10.601562-7.066406 16.976562 0 6.371094 2.542969 12.484375 7.066406 16.972657 9.472656 9.066406 24.398437 9.085937 33.894531.042968zm0 0"/><path d="m444.445312 56c0 30.929688-25.074218 56-56 56-30.929687 0-56-25.070312-56-56s25.070313-56 56-56c30.925782 0 56 25.070312 56 56zm0 0"/></svg>